# xmcd CD database file
#
# Track frame offsets:
#	150
#	38875
#	56947
#	86340
#	101984
#	113185
#	143954
#	162485
#	218930
#	230912
#	250289
#	285122
#
# Disc length: 3981 seconds
#
# Revision: 1
# Processed by: cddbd v1.5.1PL0 Copyright (c) Steve Scherf et al.
# Submitted via: CDex 1.51
#
DISCID=b40f8b0c
DTITLE=Various Artist - Between the lines - Sampler 1
DYEAR=2000
DGENRE=Jazz
TTITLE0=Make Believe - From FRANZ KOGLMANN "Make Believe"
TTITLE1=Postludique - From MICHEL WINTSCH and ROAD MOVIE featuring Gerry Hemingway
TTITLE2=Five Bits - From MICHAEL MOORE "Monitor"
TTITLE3=Nature Boy - From ENRICO RAVA - RAN BLAKE "Duo en Noir"
TTITLE4=Ridicolosamente - From OSKAR AICHINGER "Elements from Poetry"
TTITLE5=Out of Strauss - From FRANZ KOGLMANN "An affair With Strauss"
TTITLE6=Carona Glass and lady Maggie - From TONY COE - ROGER KELLAWAY "British-American Blue"
TTITLE7=Little m and Big M - From JOHON LINDBERG "A tree Frog Tonality"
TTITLE8=Leinen Los! - From ANDREAS WILLERS "Tin Drum Stories"
TTITLE9=Reconfigurations Part 1 - From RAJESH METHA "Reconfigurations"
TTITLE10=The Burgundy Bruise - From TONY COE - ROGER KELLAWAY "British-American Blue"
TTITLE11=Good Night Vienna - From FRANZ KOGLMANN "An affair With Strauss"
EXTD=YEAR: 2000
EXTT0=
EXTT1=
EXTT2=
EXTT3=
EXTT4=
EXTT5=
EXTT6=
EXTT7=
EXTT8=
EXTT9=
EXTT10=
EXTT11=
PLAYORDER=
